<?xml version="1.0" encoding="utf-8"?>
<!-- Generator: Adobe Illustrator 15.1.0, SVG Export Plug-In  -->
<!DOCTYPE svg PUBLIC "-//W3C//DTD SVG 1.1//EN" "http://www.w3.org/Graphics/SVG/1.1/DTD/svg11.dtd" [
	<!ENTITY ns_flows "http://ns.adobe.com/Flows/1.0/">
]>
<svg version="1.1"
	 xmlns="http://www.w3.org/2000/svg" xmlns:xlink="http://www.w3.org/1999/xlink" xmlns:a="http://ns.adobe.com/AdobeSVGViewerExtensions/3.0/"
	 x="0px" y="0px" width="256px" height="256px" viewBox="0 0 256 256" style="overflow:visible;enable-background:new 0 0 256 256;"
	 xml:space="preserve">
<style type="text/css">
<![CDATA[
	.st0{fill:#FFFFFF;}
]]>
</style>
<defs>
</defs>
<path id="Circle_1_" class="st0" d="M128,0C57.308,0,0,57.308,0,128s57.308,128,128,128s128-57.308,128-128S198.692,0,128,0z
	 M128,244.366c-64.267,0-116.366-52.099-116.366-116.366S63.733,11.634,128,11.634c64.267,0,116.365,52.099,116.365,116.366
	S192.267,244.366,128,244.366z"/>
<g>
	<path class="st0" d="M203.415,77.902v83.561h-29.83l-7,7v10.791l-15.041-15.643l-5.046-2.148H49.122V77.902H203.415
		 M210.415,70.902H42.122v97.561h104.376l27.087,28.17v-28.17h36.83V70.902L210.415,70.902z"/>
</g>
</svg>
